<svg width="292" height="215" viewBox="0 0 292 215" fill="none" xmlns="http://www.w3.org/2000/svg">
<path d="M143.759 145.576H21.2312L6.44531 182.119H132.164L143.759 145.576Z" fill="url(#paint0_linear_265_86)"/>
<path d="M143.759 145.576H21.2312L6.44531 182.119H132.164L143.759 145.576Z" fill="url(#paint1_linear_265_86)"/>
<path d="M0.00195312 182.119L57.1368 41.0946C67.2012 16.2547 91.3244 0 118.126 0H122.529L60.9523 151.988C53.5735 170.201 35.8865 182.119 16.2347 182.119H0.00195312Z" fill="url(#paint2_linear_265_86)"/>
<path d="M65.7363 182.119C114.926 182.119 114.926 138.272 140.839 138.272C166.751 138.272 170.011 138.272 170.011 138.272C170.011 138.272 152.258 182.119 132.611 182.119C103.185 182.119 65.7363 182.119 65.7363 182.119Z" fill="url(#paint3_linear_265_86)"/>
<path d="M65.7363 182.119C114.926 182.119 114.926 138.272 140.839 138.272C166.751 138.272 170.011 138.272 170.011 138.272C170.011 138.272 152.258 182.119 132.611 182.119C103.185 182.119 65.7363 182.119 65.7363 182.119Z" fill="url(#paint4_linear_265_86)"/>
<path opacity="0.32" d="M170.01 138.272H165.178C115.55 138.272 135.128 182.119 85.9375 182.119C98.2585 182.119 117.65 182.119 132.609 182.119C152.256 182.119 170.01 138.272 170.01 138.272Z" fill="url(#paint5_linear_265_86)"/>
<path opacity="0.5" d="M168.907 140.062C136.727 148.288 148.49 182.119 105.279 182.119C114.43 182.119 124.218 182.119 132.61 182.119C149.872 182.119 163.756 148.277 168.907 140.062Z" fill="url(#paint6_linear_265_86)"/>
<path d="M60.9524 151.988L105.279 42.5791C73.7327 120.44 19.2354 134.645 19.2354 134.645C18.6118 136.185 18.0124 137.665 17.4233 139.118L14.8528 145.461C14.4909 146.355 14.1351 147.232 13.7878 148.089L11.5437 153.629C10.4829 156.247 9.50365 158.663 8.60706 160.876L8.085 162.166C6.4069 166.307 5.02593 169.715 3.91069 172.467C3.91069 172.467 2.12273 176.88 1.77435 177.74L1.18115 179.205C0.967729 179.73 0.786742 180.179 0.633997 180.556L0.0763702 181.932C0.027199 182.054 0 182.12 0 182.12H16.2328C35.8866 182.119 53.5736 170.2 60.9524 151.988Z" fill="url(#paint7_linear_265_86)"/>
<path d="M60.9523 151.988L122.529 0C90.9833 77.861 19.2352 134.645 19.2352 134.645C18.6117 136.185 2.12364 176.88 1.7763 177.739C1.7763 177.739 0.788695 180.178 0.635951 180.555L0.0783234 181.931C0.0291522 182.053 0.00195312 182.119 0.00195312 182.119H16.2347C35.8865 182.119 53.5735 170.2 60.9523 151.988Z" fill="url(#paint8_linear_265_86)"/>
<path opacity="0.42" d="M9.42086 158.872C9.14362 159.555 0.0783234 181.93 0.0783234 181.93C0.0291522 182.051 0.00195312 182.117 0.00195312 182.117H16.2347C35.8854 182.117 53.5724 170.199 60.9523 151.987L93.9263 70.5978L93.9273 70.5957C69.1063 131.86 26.4728 152.748 9.42086 158.872Z" fill="url(#paint9_linear_265_86)"/>
<path opacity="0.42" d="M16.2355 182.118C35.8862 182.118 53.5732 170.2 60.9531 151.988L67.9888 134.622C45.7278 164.499 20.2059 177.236 7.17969 182.119H16.2355V182.118Z" fill="url(#paint10_linear_265_86)"/>
<path d="M291.834 127.06C291.834 84.7461 266.082 52.7741 227.117 43.4352C219.492 41.608 211.369 40.6309 202.825 40.6309H144.006H132.979C134.907 65.03 155.304 84.234 180.199 84.234C180.373 84.234 180.546 84.2226 180.72 84.2212C180.731 84.5464 180.75 84.8702 180.753 85.1983V84.3153H200.586C202.962 84.3153 205.264 84.4637 207.487 84.7532C241.864 87.8001 268.823 116.657 268.823 151.825C268.823 174.289 257.817 194.171 240.912 206.408C271.989 193.373 291.834 164.076 291.834 127.06Z" fill="url(#paint11_linear_265_86)"/>
<path d="M292 127.066C292 169.38 266.247 201.352 227.283 210.69C219.657 212.518 211.535 213.495 202.991 213.495H144.17H133.143C135.071 189.096 155.468 169.892 180.363 169.892C180.537 169.892 180.71 169.903 180.884 169.904C180.895 169.579 180.914 169.255 180.917 168.927V169.81H200.75C203.126 169.81 205.428 169.662 207.649 169.372C242.026 166.326 268.986 137.469 268.986 102.3C268.986 79.8367 257.98 59.9551 241.075 47.7178C272.153 60.7511 292 90.05 292 127.066Z" fill="url(#paint12_linear_265_86)"/>
<path d="M243.289 51.0409C242.964 50.6315 242.631 50.2293 242.297 49.8284C241.84 49.6273 241.386 49.4176 240.924 49.2236C241.731 49.8056 242.51 50.4218 243.289 51.0409Z" fill="url(#paint13_linear_265_86)"/>
<path d="M261.81 61.7725C273.921 76.4989 280.87 95.6959 280.87 117.597C280.87 159.911 255.117 191.883 216.153 201.222C208.527 203.049 200.405 204.026 191.861 204.026H135.18C134.036 207.522 133.287 211.197 132.986 214.998H144.014H202.833C211.377 214.998 219.499 214.021 227.125 212.194C266.089 202.855 291.842 170.882 291.842 128.569C291.844 100.721 280.608 77.2435 261.81 61.7725Z" fill="url(#paint14_linear_265_86)"/>
<path d="M132.793 40.6311L178.691 40.5906L178.636 91.3071C178.36 113.208 157.792 130.801 132.694 130.603L132.793 40.6311Z" fill="url(#paint15_linear_265_86)"/>
<path d="M133.317 129.183C151.616 129.34 167.83 117.813 177.291 100.281C168.1 109.771 156.251 115.462 143.366 115.351L143.656 34.6097L133.65 36.1357L133.317 129.183Z" fill="url(#paint16_linear_265_86)"/>
<defs>
<linearGradient id="paint0_linear_265_86" x1="52.8708" y1="149.474" x2="87.6601" y2="171.967" gradientUnits="userSpaceOnUse">
<stop stop-color="#3D0056"/>
<stop offset="0.9997" stop-color="#E33FC5"/>
</linearGradient>
<linearGradient id="paint1_linear_265_86" x1="96.3474" y1="186.647" x2="48.4101" y2="135.203" gradientUnits="userSpaceOnUse">
<stop stop-color="#3D0056"/>
<stop offset="0.5055" stop-color="#E33FC5" stop-opacity="0"/>
</linearGradient>
<linearGradient id="paint2_linear_265_86" x1="79.1428" y1="123.799" x2="40.0545" y2="52.2106" gradientUnits="userSpaceOnUse">
<stop offset="0.000294" stop-color="#2A0056"/>
<stop offset="1" stop-color="#8A0BFF"/>
</linearGradient>
<linearGradient id="paint3_linear_265_86" x1="65.736" y1="160.195" x2="170.011" y2="160.195" gradientUnits="userSpaceOnUse">
<stop stop-color="#DF38FF"/>
<stop offset="1" stop-color="#FF39FF"/>
</linearGradient>
<linearGradient id="paint4_linear_265_86" x1="65.736" y1="160.195" x2="170.011" y2="160.195" gradientUnits="userSpaceOnUse">
<stop stop-color="#DF38FF"/>
<stop offset="1" stop-color="#FF39FF"/>
</linearGradient>
<linearGradient id="paint5_linear_265_86" x1="85.938" y1="160.195" x2="170.01" y2="160.195" gradientUnits="userSpaceOnUse">
<stop stop-color="#8A0BFF"/>
<stop offset="0.9994" stop-color="#2A0056" stop-opacity="0"/>
</linearGradient>
<linearGradient id="paint6_linear_265_86" x1="105.279" y1="161.09" x2="168.907" y2="161.09" gradientUnits="userSpaceOnUse">
<stop stop-color="#8A0BFF"/>
<stop offset="0.9994" stop-color="#2A0056" stop-opacity="0"/>
</linearGradient>
<linearGradient id="paint7_linear_265_86" x1="58.6252" y1="142.127" x2="40.1792" y2="50.3356" gradientUnits="userSpaceOnUse">
<stop stop-color="#A553FF"/>
<stop offset="0.9994" stop-color="#AE38FF"/>
</linearGradient>
<linearGradient id="paint8_linear_265_86" x1="69.0291" y1="129.689" x2="44.6989" y2="8.61658" gradientUnits="userSpaceOnUse">
<stop stop-color="#A553FF"/>
<stop offset="0.9994" stop-color="#AE38FF"/>
</linearGradient>
<linearGradient id="paint9_linear_265_86" x1="51.7789" y1="150.312" x2="37.2048" y2="77.7883" gradientUnits="userSpaceOnUse">
<stop stop-color="#8A0BFF"/>
<stop offset="0.9994" stop-color="#2A0056" stop-opacity="0"/>
</linearGradient>
<linearGradient id="paint10_linear_265_86" x1="39.584" y1="168.322" x2="33.8577" y2="139.827" gradientUnits="userSpaceOnUse">
<stop stop-color="#8A0BFF"/>
<stop offset="0.9994" stop-color="#2A0056" stop-opacity="0"/>
</linearGradient>
<linearGradient id="paint11_linear_265_86" x1="238.424" y1="124.569" x2="156.414" y2="70.2968" gradientUnits="userSpaceOnUse">
<stop offset="0.097" stop-color="#642EC0"/>
<stop offset="0.6695" stop-color="#9441F5"/>
</linearGradient>
<linearGradient id="paint12_linear_265_86" x1="122.382" y1="258.318" x2="337.387" y2="30.1012" gradientUnits="userSpaceOnUse">
<stop offset="0.1671" stop-color="#911EAD"/>
<stop offset="0.9926" stop-color="#D62AFC"/>
</linearGradient>
<linearGradient id="paint13_linear_265_86" x1="241.936" y1="50.3127" x2="242.475" y2="49.7404" gradientUnits="userSpaceOnUse">
<stop offset="0.1671" stop-color="#911EAD"/>
<stop offset="0.9926" stop-color="#D62AFC"/>
</linearGradient>
<linearGradient id="paint14_linear_265_86" x1="203.335" y1="200.338" x2="259.953" y2="63.8398" gradientUnits="userSpaceOnUse">
<stop offset="0.673077" stop-opacity="0.1"/>
<stop offset="1" stop-color="white" stop-opacity="0"/>
</linearGradient>
<linearGradient id="paint15_linear_265_86" x1="160.933" y1="167.426" x2="152.258" y2="35.2084" gradientUnits="userSpaceOnUse">
<stop stop-color="#BC04F0"/>
<stop offset="0.1154" stop-color="#B406E6"/>
<stop offset="0.31" stop-color="#9D0ACC"/>
<stop offset="0.5597" stop-color="#7912A1"/>
<stop offset="0.852" stop-color="#471C66"/>
<stop offset="1" stop-color="#2B2246"/>
</linearGradient>
<linearGradient id="paint16_linear_265_86" x1="161.241" y1="56.2046" x2="99.0939" y2="195.664" gradientUnits="userSpaceOnUse">
<stop offset="0.0223" stop-color="white" stop-opacity="0"/>
<stop offset="1" stop-color="white"/>
</linearGradient>
</defs>
</svg>
