<svg width="3050" height="754" viewBox="0 0 3050 754" fill="none" xmlns="http://www.w3.org/2000/svg">
<path d="M1174.69 274.652H1341.14V312.769H1218.53V372.485H1329.38V410.602H1218.53V497H1174.69V274.652ZM1438.65 499.541C1421.92 499.541 1407.1 496.047 1394.18 489.059C1381.47 481.859 1371.52 471.906 1364.32 459.201C1357.33 446.283 1353.84 431.354 1353.84 414.414V357.238C1353.84 340.297 1357.33 325.474 1364.32 312.769C1371.52 299.851 1381.47 289.899 1394.18 282.91C1407.1 275.711 1421.92 272.111 1438.65 272.111H1472.32C1489.05 272.111 1503.76 275.711 1516.47 282.91C1529.39 289.899 1539.34 299.851 1546.33 312.769C1553.53 325.474 1557.13 340.297 1557.13 357.238V414.414C1557.13 431.354 1553.53 446.283 1546.33 459.201C1539.34 471.906 1529.39 481.859 1516.47 489.059C1503.76 496.047 1489.05 499.541 1472.32 499.541H1438.65ZM1472.32 460.789C1484.6 460.789 1494.45 456.342 1501.86 447.448C1509.48 438.554 1513.29 426.907 1513.29 412.508V359.144C1513.29 344.744 1509.48 333.098 1501.86 324.204C1494.45 315.31 1484.6 310.863 1472.32 310.863H1438.65C1426.37 310.863 1416.41 315.31 1408.79 324.204C1401.38 333.098 1397.67 344.744 1397.67 359.144V412.508C1397.67 426.907 1401.38 438.554 1408.79 447.448C1416.41 456.342 1426.37 460.789 1438.65 460.789H1472.32ZM1590.05 274.652H1708.21C1727.48 274.652 1742.94 279.84 1754.58 290.216C1766.44 300.592 1772.37 314.251 1772.37 331.192V353.427C1772.37 364.438 1769.19 374.073 1762.84 382.332C1756.7 390.379 1747.7 396.52 1735.84 400.755V401.39C1742.62 405.837 1747.7 410.919 1751.09 416.637C1754.69 422.355 1758.18 430.296 1761.57 440.46L1779.36 497H1733.94L1717.1 444.272C1714.35 435.166 1710.54 428.39 1705.67 423.943C1700.8 419.496 1694.76 417.272 1687.56 417.272H1633.88V497H1590.05V274.652ZM1699.95 379.473C1708.84 379.473 1715.83 377.144 1720.91 372.485C1726 367.615 1728.54 361.368 1728.54 353.744V333.098C1728.54 326.957 1726.63 322.086 1722.82 318.486C1719.01 314.674 1713.93 312.769 1707.57 312.769H1633.88V379.473H1699.95ZM1880.31 499.541C1864.01 499.541 1849.61 496.047 1837.12 489.059C1824.62 482.071 1814.88 472.224 1807.89 459.518C1801.12 446.601 1797.73 431.778 1797.73 415.049V356.603C1797.73 339.874 1801.12 325.157 1807.89 312.451C1814.88 299.534 1824.62 289.581 1837.12 282.593C1849.82 275.605 1864.43 272.111 1880.95 272.111H1916.53C1932.41 272.111 1946.38 275.287 1958.45 281.64C1970.52 287.993 1979.84 296.992 1986.41 308.639C1993.18 320.286 1996.57 333.733 1996.57 348.98H1953.37C1953.37 337.545 1949.98 328.333 1943.21 321.345C1936.43 314.357 1927.54 310.863 1916.53 310.863H1880.95C1869.09 310.863 1859.56 315.31 1852.36 324.204C1845.16 332.886 1841.56 344.321 1841.56 358.509V413.143C1841.56 427.331 1845.06 438.872 1852.04 447.766C1859.24 456.448 1868.67 460.789 1880.31 460.789H1917.8C1928.6 460.789 1937.49 456.871 1944.48 449.036C1951.68 441.201 1955.28 431.46 1955.28 419.813V412.825H1893.66V374.708H1998.48V419.813C1998.48 435.272 1995.09 449.036 1988.31 461.107C1981.54 473.177 1972.01 482.6 1959.72 489.377C1947.44 496.153 1933.47 499.541 1917.8 499.541H1880.31ZM2061.02 497C2051.92 497 2044.51 494.247 2038.79 488.741C2033.07 483.236 2030.21 476.036 2030.21 467.142V274.652H2199.83V312.769H2074.05V364.226H2190.3V402.343H2074.05V458.883H2199.83V497H2061.02ZM2284.3 312.769H2213.79V274.652H2398.65V312.769H2328.14V497H2284.3V312.769ZM2453.11 497C2444.01 497 2436.59 494.247 2430.88 488.741C2425.16 483.236 2422.3 476.036 2422.3 467.142V274.652H2591.92V312.769H2466.13V364.226H2582.39V402.343H2466.13V458.883H2591.92V497H2453.11ZM2695.49 499.541C2679.19 499.541 2664.79 496.047 2652.29 489.059C2640.01 482.071 2630.48 472.224 2623.71 459.518C2616.93 446.601 2613.54 431.778 2613.54 415.049V356.603C2613.54 339.874 2616.93 325.157 2623.71 312.451C2630.69 299.534 2640.44 289.581 2652.93 282.593C2665.64 275.605 2680.25 272.111 2696.76 272.111H2730.43C2746.32 272.111 2760.29 275.499 2772.36 282.275C2784.43 289.051 2793.75 298.581 2800.31 310.863C2807.09 322.933 2810.48 337.015 2810.48 353.109H2767.28C2767.28 340.403 2763.89 330.239 2757.12 322.615C2750.34 314.78 2741.45 310.863 2730.43 310.863H2696.76C2684.91 310.863 2675.38 315.31 2668.18 324.204C2660.98 332.886 2657.38 344.321 2657.38 358.509V413.143C2657.38 427.331 2660.87 438.872 2667.86 447.766C2674.85 456.448 2684.06 460.789 2695.49 460.789H2729.8C2741.02 460.789 2750.13 456.448 2757.12 447.766C2764.32 439.084 2767.92 427.649 2767.92 413.461H2811.11C2811.11 430.613 2807.73 445.754 2800.95 458.883C2794.17 471.801 2784.64 481.859 2772.36 489.059C2760.08 496.047 2745.89 499.541 2729.8 499.541H2695.49ZM2838.58 274.652H2882.42V366.45H2985.97V274.652H3029.8V497H2985.97V404.567H2882.42V497H2838.58V274.652Z" fill="white"/>
<path d="M504.159 510.537H74.4557L22.6016 638.692H463.496L504.159 510.537Z" fill="url(#paint0_linear_287_62)"/>
<path d="M504.159 510.537H74.4557L22.6016 638.692H463.496L504.159 510.537Z" fill="url(#paint1_linear_287_62)"/>
<path d="M0.0078125 638.691L200.38 144.119C235.676 57.0054 320.276 0 414.269 0H429.711L213.761 533.023C187.883 596.897 125.855 638.691 56.9362 638.691H0.0078125Z" fill="url(#paint2_linear_287_62)"/>
<path d="M230.537 638.69C403.047 638.69 403.047 484.922 493.921 484.922C584.795 484.922 596.228 484.922 596.228 484.922C596.228 484.922 533.968 638.69 465.068 638.69C361.869 638.69 230.537 638.69 230.537 638.69Z" fill="url(#paint3_linear_287_62)"/>
<path d="M230.537 638.69C403.047 638.69 403.047 484.922 493.921 484.922C584.795 484.922 596.228 484.922 596.228 484.922C596.228 484.922 533.968 638.69 465.068 638.69C361.869 638.69 230.537 638.69 230.537 638.69Z" fill="url(#paint4_linear_287_62)"/>
<path opacity="0.32" d="M596.225 484.922H579.281C405.234 484.922 473.892 638.69 301.383 638.69C344.593 638.69 412.598 638.69 465.061 638.69C533.961 638.69 596.225 484.922 596.225 484.922Z" fill="url(#paint5_linear_287_62)"/>
<path opacity="0.5" d="M592.357 491.2C479.502 520.046 520.756 638.691 369.215 638.691C401.308 638.691 435.631 638.691 465.064 638.691C525.603 638.691 574.294 520.009 592.357 491.2Z" fill="url(#paint6_linear_287_62)"/>
<path d="M213.76 533.024L369.213 149.326C258.581 422.385 67.4585 472.203 67.4585 472.203C65.2717 477.604 63.1694 482.792 61.1037 487.888L52.089 510.133C50.8195 513.27 49.572 516.345 48.3539 519.35L40.4839 538.777C36.7635 547.961 33.3293 556.432 30.185 564.192L28.3541 568.716C22.469 583.242 17.626 595.192 13.7148 604.845C13.7148 604.845 7.44442 620.321 6.22264 623.337L4.14231 628.473C3.39383 630.315 2.75911 631.889 2.22343 633.21L0.267831 638.039C0.0953871 638.464 0 638.695 0 638.695H56.9284C125.854 638.692 187.883 596.894 213.76 533.024Z" fill="url(#paint7_linear_287_62)"/>
<path d="M213.761 533.023L429.711 0C319.08 273.059 67.4589 472.202 67.4589 472.202C65.2722 477.603 7.44857 620.32 6.23045 623.332C6.23045 623.332 2.76692 631.885 2.23124 633.205L0.275643 638.034C0.1032 638.459 0.0078125 638.691 0.0078125 638.691H56.9362C125.855 638.691 187.883 596.893 213.761 533.023Z" fill="url(#paint8_linear_287_62)"/>
<path opacity="0.42" d="M33.0399 557.164C32.0677 559.56 0.275643 638.029 0.275643 638.029C0.1032 638.455 0.0078125 638.686 0.0078125 638.686H56.9362C125.851 638.686 187.88 596.888 213.761 533.018L329.401 247.587L329.404 247.58C242.357 462.434 92.8412 535.689 33.0399 557.164Z" fill="url(#paint9_linear_287_62)"/>
<path opacity="0.42" d="M56.9406 638.69C125.856 638.69 187.884 596.892 213.765 533.022L238.439 472.12C160.37 576.9 70.8645 621.566 25.1816 638.693H56.9406V638.69Z" fill="url(#paint10_linear_287_62)"/>
<path d="M1023.47 445.599C1023.47 297.204 933.151 185.078 796.502 152.327C769.759 145.919 741.275 142.492 711.31 142.492H505.032H466.357C473.121 228.06 544.652 295.409 631.96 295.409C632.57 295.409 633.176 295.369 633.786 295.364C633.826 296.504 633.891 297.64 633.901 298.79V295.694H703.456C711.79 295.694 719.864 296.214 727.658 297.229C848.218 307.915 942.765 409.115 942.765 532.452C942.765 611.231 904.166 680.956 844.882 723.873C953.866 678.16 1023.47 575.413 1023.47 445.599Z" fill="url(#paint11_linear_287_62)"/>
<path d="M1024.04 445.619C1024.04 594.013 933.73 706.139 797.082 738.89C770.338 745.298 741.854 748.725 711.889 748.725H505.606H466.932C473.695 663.157 545.226 595.809 632.534 595.809C633.145 595.809 633.75 595.849 634.36 595.854C634.4 594.713 634.465 593.578 634.475 592.427V595.524H704.03C712.364 595.524 720.438 595.003 728.227 593.988C848.787 583.303 943.335 482.102 943.335 358.765C943.335 279.986 904.735 210.261 845.451 167.345C954.44 213.053 1024.04 315.804 1024.04 445.619Z" fill="url(#paint12_linear_287_62)"/>
<path d="M853.212 179.002C852.072 177.566 850.906 176.156 849.735 174.75C848.13 174.045 846.539 173.309 844.918 172.629C847.749 174.67 850.481 176.831 853.212 179.002Z" fill="url(#paint13_linear_287_62)"/>
<path d="M918.172 216.636C960.644 268.282 985.016 335.605 985.016 412.414C985.016 560.808 894.701 672.934 758.052 705.685C731.309 712.093 702.825 715.52 672.86 715.52H474.081C470.069 727.781 467.442 740.668 466.387 753.999H505.061H711.339C741.304 753.999 769.788 750.573 796.532 744.164C933.18 711.413 1023.5 599.282 1023.5 450.893C1023.5 353.229 984.095 270.893 918.172 216.636Z" fill="url(#paint14_linear_287_62)"/>
<path d="M465.704 142.493L626.669 142.351L626.476 320.214C625.508 397.021 553.375 458.719 465.359 458.026L465.704 142.493Z" fill="url(#paint15_linear_287_62)"/>
<path d="M467.542 453.044C531.717 453.596 588.579 413.172 621.76 351.686C589.526 384.968 547.971 404.926 502.786 404.537L503.801 121.377L468.711 126.728L467.542 453.044Z" fill="url(#paint16_linear_287_62)"/>
<defs>
<linearGradient id="paint0_linear_287_62" x1="185.416" y1="524.206" x2="307.422" y2="603.09" gradientUnits="userSpaceOnUse">
<stop stop-color="#3D0056"/>
<stop offset="0.9997" stop-color="#E33FC5"/>
</linearGradient>
<linearGradient id="paint1_linear_287_62" x1="337.889" y1="654.574" x2="169.772" y2="474.158" gradientUnits="userSpaceOnUse">
<stop stop-color="#3D0056"/>
<stop offset="0.5055" stop-color="#E33FC5" stop-opacity="0"/>
</linearGradient>
<linearGradient id="paint2_linear_287_62" x1="277.555" y1="434.164" x2="140.472" y2="183.103" gradientUnits="userSpaceOnUse">
<stop offset="0.000294" stop-color="#2A0056"/>
<stop offset="1" stop-color="#8A0BFF"/>
</linearGradient>
<linearGradient id="paint3_linear_287_62" x1="230.536" y1="561.805" x2="596.227" y2="561.805" gradientUnits="userSpaceOnUse">
<stop stop-color="#DF38FF"/>
<stop offset="1" stop-color="#FF39FF"/>
</linearGradient>
<linearGradient id="paint4_linear_287_62" x1="230.536" y1="561.805" x2="596.227" y2="561.805" gradientUnits="userSpaceOnUse">
<stop stop-color="#DF38FF"/>
<stop offset="1" stop-color="#FF39FF"/>
</linearGradient>
<linearGradient id="paint5_linear_287_62" x1="301.385" y1="561.805" x2="596.224" y2="561.805" gradientUnits="userSpaceOnUse">
<stop stop-color="#8A0BFF"/>
<stop offset="0.9994" stop-color="#2A0056" stop-opacity="0"/>
</linearGradient>
<linearGradient id="paint6_linear_287_62" x1="369.214" y1="564.945" x2="592.356" y2="564.945" gradientUnits="userSpaceOnUse">
<stop stop-color="#8A0BFF"/>
<stop offset="0.9994" stop-color="#2A0056" stop-opacity="0"/>
</linearGradient>
<linearGradient id="paint7_linear_287_62" x1="205.599" y1="498.441" x2="140.909" y2="176.528" gradientUnits="userSpaceOnUse">
<stop stop-color="#A553FF"/>
<stop offset="0.9994" stop-color="#AE38FF"/>
</linearGradient>
<linearGradient id="paint8_linear_287_62" x1="242.086" y1="454.818" x2="156.76" y2="30.2184" gradientUnits="userSpaceOnUse">
<stop stop-color="#A553FF"/>
<stop offset="0.9994" stop-color="#AE38FF"/>
</linearGradient>
<linearGradient id="paint9_linear_287_62" x1="181.59" y1="527.145" x2="130.478" y2="272.805" gradientUnits="userSpaceOnUse">
<stop stop-color="#8A0BFF"/>
<stop offset="0.9994" stop-color="#2A0056" stop-opacity="0"/>
</linearGradient>
<linearGradient id="paint10_linear_287_62" x1="138.824" y1="590.307" x2="118.741" y2="490.373" gradientUnits="userSpaceOnUse">
<stop stop-color="#8A0BFF"/>
<stop offset="0.9994" stop-color="#2A0056" stop-opacity="0"/>
</linearGradient>
<linearGradient id="paint11_linear_287_62" x1="836.156" y1="436.862" x2="548.545" y2="246.531" gradientUnits="userSpaceOnUse">
<stop offset="0.097" stop-color="#642EC0"/>
<stop offset="0.6695" stop-color="#9441F5"/>
</linearGradient>
<linearGradient id="paint12_linear_287_62" x1="429.196" y1="905.921" x2="1183.22" y2="105.563" gradientUnits="userSpaceOnUse">
<stop offset="0.1671" stop-color="#911EAD"/>
<stop offset="0.9926" stop-color="#D62AFC"/>
</linearGradient>
<linearGradient id="paint13_linear_287_62" x1="848.467" y1="176.448" x2="850.358" y2="174.441" gradientUnits="userSpaceOnUse">
<stop offset="0.1671" stop-color="#911EAD"/>
<stop offset="0.9926" stop-color="#D62AFC"/>
</linearGradient>
<linearGradient id="paint14_linear_287_62" x1="713.099" y1="702.587" x2="911.66" y2="223.886" gradientUnits="userSpaceOnUse">
<stop offset="0.673077" stop-opacity="0.1"/>
<stop offset="1" stop-color="white" stop-opacity="0"/>
</linearGradient>
<linearGradient id="paint15_linear_287_62" x1="564.392" y1="587.162" x2="533.969" y2="123.476" gradientUnits="userSpaceOnUse">
<stop stop-color="#BC04F0"/>
<stop offset="0.1154" stop-color="#B406E6"/>
<stop offset="0.31" stop-color="#9D0ACC"/>
<stop offset="0.5597" stop-color="#7912A1"/>
<stop offset="0.852" stop-color="#471C66"/>
<stop offset="1" stop-color="#2B2246"/>
</linearGradient>
<linearGradient id="paint16_linear_287_62" x1="565.472" y1="197.11" x2="347.523" y2="686.196" gradientUnits="userSpaceOnUse">
<stop offset="0.0223" stop-color="white" stop-opacity="0"/>
<stop offset="1" stop-color="white"/>
</linearGradient>
</defs>
</svg>
