<svg width="255" height="64" viewBox="0 0 255 64" fill="none" xmlns="http://www.w3.org/2000/svg">
<path d="M95.4665 29.4321H109.594V32.6675H99.1872V37.7363H108.597V40.9716H99.1872V48.3052H95.4665V29.4321ZM117.871 48.5209C116.451 48.5209 115.193 48.2243 114.097 47.6311C113.018 47.02 112.173 46.1752 111.562 45.0968C110.969 44.0003 110.672 42.7331 110.672 41.2952V36.4421C110.672 35.0042 110.969 33.746 111.562 32.6675C112.173 31.5711 113.018 30.7263 114.097 30.1331C115.193 29.522 116.451 29.2164 117.871 29.2164H120.729C122.149 29.2164 123.398 29.522 124.477 30.1331C125.573 30.7263 126.418 31.5711 127.011 32.6675C127.622 33.746 127.928 35.0042 127.928 36.4421V41.2952C127.928 42.7331 127.622 44.0003 127.011 45.0968C126.418 46.1752 125.573 47.02 124.477 47.6311C123.398 48.2243 122.149 48.5209 120.729 48.5209H117.871ZM120.729 45.2316C121.772 45.2316 122.607 44.8541 123.236 44.0992C123.884 43.3443 124.207 42.3557 124.207 41.1334V36.6039C124.207 35.3816 123.884 34.393 123.236 33.6381C122.607 32.8832 121.772 32.5057 120.729 32.5057H117.871C116.829 32.5057 115.984 32.8832 115.337 33.6381C114.708 34.393 114.393 35.3816 114.393 36.6039V41.1334C114.393 42.3557 114.708 43.3443 115.337 44.0992C115.984 44.8541 116.829 45.2316 117.871 45.2316H120.729ZM130.722 29.4321H140.752C142.387 29.4321 143.699 29.8725 144.688 30.7532C145.695 31.634 146.198 32.7933 146.198 34.2313V36.1186C146.198 37.0532 145.928 37.8711 145.389 38.5721C144.868 39.2551 144.104 39.7763 143.097 40.1358V40.1898C143.672 40.5672 144.104 40.9986 144.391 41.4839C144.697 41.9692 144.994 42.6433 145.281 43.506L146.791 48.3052H142.935L141.507 43.8296C141.273 43.0567 140.949 42.4815 140.536 42.104C140.122 41.7266 139.61 41.5378 138.999 41.5378H134.443V48.3052H130.722V29.4321ZM140.051 38.3294C140.806 38.3294 141.399 38.1317 141.83 37.7363C142.261 37.3228 142.477 36.7926 142.477 36.1455V34.393C142.477 33.8718 142.315 33.4584 141.992 33.1528C141.668 32.8293 141.237 32.6675 140.698 32.6675H134.443V38.3294H140.051ZM155.36 48.5209C153.976 48.5209 152.754 48.2243 151.693 47.6311C150.633 47.038 149.806 46.2022 149.213 45.1237C148.638 44.0273 148.35 42.7691 148.35 41.3491V36.3882C148.35 34.9682 148.638 33.719 149.213 32.6405C149.806 31.5441 150.633 30.6993 151.693 30.1061C152.772 29.513 154.012 29.2164 155.414 29.2164H158.434C159.782 29.2164 160.968 29.486 161.993 30.0253C163.017 30.5645 163.808 31.3284 164.365 32.317C164.94 33.3056 165.228 34.447 165.228 35.7411H161.561C161.561 34.7705 161.274 33.9886 160.698 33.3955C160.123 32.8023 159.368 32.5057 158.434 32.5057H155.414C154.407 32.5057 153.599 32.8832 152.987 33.6381C152.376 34.3751 152.071 35.3457 152.071 36.55V41.1873C152.071 42.3916 152.367 43.3712 152.961 44.1261C153.572 44.8631 154.372 45.2316 155.36 45.2316H158.542C159.458 45.2316 160.213 44.899 160.806 44.234C161.417 43.5689 161.723 42.7421 161.723 41.7535V41.1604H156.492V37.925H165.39V41.7535C165.39 43.0657 165.102 44.234 164.527 45.2585C163.952 46.2831 163.143 47.0829 162.1 47.6581C161.058 48.2333 159.872 48.5209 158.542 48.5209H155.36ZM170.699 48.3052C169.926 48.3052 169.297 48.0715 168.812 47.6042C168.326 47.1368 168.084 46.5257 168.084 45.7708V29.4321H182.481V32.6675H171.804V37.0353H181.672V40.2706H171.804V45.0698H182.481V48.3052H170.699ZM189.651 32.6675H183.665V29.4321H199.357V32.6675H193.372V48.3052H189.651V32.6675ZM203.98 48.3052C203.207 48.3052 202.578 48.0715 202.092 47.6042C201.607 47.1368 201.364 46.5257 201.364 45.7708V29.4321H215.762V32.6675H205.085V37.0353H214.953V40.2706H205.085V45.0698H215.762V48.3052H203.98ZM224.553 48.5209C223.169 48.5209 221.947 48.2243 220.886 47.6311C219.844 47.038 219.035 46.2022 218.46 45.1237C217.885 44.0273 217.597 42.7691 217.597 41.3491V36.3882C217.597 34.9682 217.885 33.719 218.46 32.6405C219.053 31.5441 219.88 30.6993 220.94 30.1061C222.019 29.513 223.259 29.2164 224.661 29.2164H227.519C228.867 29.2164 230.053 29.504 231.078 30.0792C232.102 30.6544 232.893 31.4632 233.45 32.5057C234.026 33.5303 234.313 34.7256 234.313 36.0916H230.646C230.646 35.0131 230.359 34.1504 229.784 33.5033C229.208 32.8382 228.453 32.5057 227.519 32.5057H224.661C223.654 32.5057 222.845 32.8832 222.234 33.6381C221.623 34.3751 221.318 35.3457 221.318 36.55V41.1873C221.318 42.3916 221.614 43.3712 222.207 44.1261C222.801 44.8631 223.582 45.2316 224.553 45.2316H227.465C228.418 45.2316 229.19 44.8631 229.784 44.1261C230.395 43.3892 230.7 42.4186 230.7 41.2143H234.367C234.367 42.6702 234.079 43.9554 233.504 45.0698C232.929 46.1662 232.12 47.02 231.078 47.6311C230.035 48.2243 228.831 48.5209 227.465 48.5209H224.553ZM236.699 29.4321H240.419V37.224H249.209V29.4321H252.929V48.3052H249.209V40.4594H240.419V48.3052H236.699V29.4321Z" fill="white"/>
<path d="M42.7929 43.3347H6.31938L1.91797 54.2126H39.3414L42.7929 43.3347Z" fill="url(#paint0_linear_268_130)"/>
<path d="M42.7929 43.3347H6.31938L1.91797 54.2126H39.3414L42.7929 43.3347Z" fill="url(#paint1_linear_268_130)"/>
<path d="M0.00195312 54.2125L17.0097 12.2329C20.0056 4.83866 27.1865 0 35.1647 0H36.4755L18.1454 45.2434C15.9489 50.665 10.6839 54.2125 4.83407 54.2125H0.00195312Z" fill="url(#paint2_linear_268_130)"/>
<path d="M19.5684 54.2126C34.2111 54.2126 34.2111 41.1606 41.9245 41.1606C49.638 41.1606 50.6084 41.1606 50.6084 41.1606C50.6084 41.1606 45.3238 54.2126 39.4755 54.2126C30.7159 54.2126 19.5684 54.2126 19.5684 54.2126Z" fill="url(#paint3_linear_268_130)"/>
<path d="M19.5684 54.2126C34.2111 54.2126 34.2111 41.1606 41.9245 41.1606C49.638 41.1606 50.6084 41.1606 50.6084 41.1606C50.6084 41.1606 45.3238 54.2126 39.4755 54.2126C30.7159 54.2126 19.5684 54.2126 19.5684 54.2126Z" fill="url(#paint4_linear_268_130)"/>
<path opacity="0.32" d="M50.6084 41.1606H49.1702C34.397 41.1606 40.2248 54.2126 25.582 54.2126C29.2497 54.2126 35.022 54.2126 39.4752 54.2126C45.3235 54.2126 50.6084 41.1606 50.6084 41.1606Z" fill="url(#paint5_linear_268_130)"/>
<path opacity="0.5" d="M50.2783 41.6936C40.6991 44.1421 44.2008 54.2127 31.3379 54.2127C34.062 54.2127 36.9754 54.2127 39.4736 54.2127C44.6122 54.2127 48.7452 44.1389 50.2783 41.6936Z" fill="url(#paint6_linear_268_130)"/>
<path d="M18.1441 45.2436L31.339 12.675C21.9485 35.8525 5.72592 40.081 5.72592 40.081C5.54031 40.5395 5.36186 40.9798 5.18653 41.4124L4.42135 43.3006C4.31359 43.5669 4.20771 43.8278 4.10431 44.0829L3.4363 45.7319C3.12051 46.5114 2.82902 47.2305 2.56212 47.8892L2.40672 48.2732C1.90719 49.5061 1.4961 50.5204 1.16412 51.3398C1.16412 51.3398 0.631888 52.6534 0.528182 52.9094L0.351602 53.3454C0.28807 53.5017 0.234195 53.6353 0.188726 53.7474L0.0227336 54.1573C0.00809653 54.1934 0 54.213 0 54.213H4.83212C10.6826 54.2127 15.9476 50.6649 18.1441 45.2436Z" fill="url(#paint7_linear_268_130)"/>
<path d="M18.1454 45.2434L36.4755 0C27.085 23.1774 5.72725 40.0808 5.72725 40.0808C5.54164 40.5392 0.633529 52.6532 0.530135 52.9089C0.530135 52.9089 0.236148 53.6348 0.190679 53.7469L0.0246868 54.1567C0.0100497 54.1929 0.00195312 54.2125 0.00195312 54.2125H4.83407C10.6839 54.2125 15.9489 50.6647 18.1454 45.2434Z" fill="url(#paint8_linear_268_130)"/>
<path opacity="0.42" d="M2.80574 47.2926C2.72321 47.4959 0.0246868 54.1565 0.0246868 54.1565C0.0100497 54.1926 0.00195312 54.2122 0.00195312 54.2122H4.83408C10.6836 54.2122 15.9486 50.6644 18.1455 45.2431L27.961 21.0155L27.9614 21.0149C20.5727 39.2518 7.88171 45.4698 2.80574 47.2926Z" fill="url(#paint9_linear_268_130)"/>
<path opacity="0.42" d="M4.83244 54.2123C10.682 54.2123 15.947 50.6645 18.1438 45.2431L20.2382 40.0737C13.6116 48.9675 6.01431 52.7588 2.13672 54.2126H4.83244V54.2123Z" fill="url(#paint10_linear_268_130)"/>
<path d="M86.8717 37.8226C86.8717 25.2268 79.2057 15.7095 67.6069 12.9295C65.3369 12.3856 62.9192 12.0947 60.3757 12.0947H42.8667H39.584C40.1581 19.3578 46.2296 25.0744 53.6405 25.0744C53.6923 25.0744 53.7436 25.071 53.7954 25.0706C53.7988 25.1674 53.8044 25.2638 53.8052 25.3614V25.0986H59.7091C60.4165 25.0986 61.1018 25.1427 61.7634 25.2289C71.9966 26.1359 80.0218 34.7259 80.0218 45.1948C80.0218 51.8816 76.7455 57.7999 71.7134 61.4427C80.964 57.5626 86.8717 48.8414 86.8717 37.8226Z" fill="url(#paint11_linear_268_130)"/>
<path d="M86.9229 37.8244C86.9229 50.4202 79.2569 59.9376 67.6581 62.7175C65.3881 63.2615 62.9704 63.5523 60.4269 63.5523H42.9175H39.6348C40.2088 56.2893 46.2804 50.5727 53.6912 50.5727C53.743 50.5727 53.7944 50.5761 53.8462 50.5765C53.8496 50.4797 53.8551 50.3833 53.856 50.2856V50.5485H59.7598C60.4673 50.5485 61.1526 50.5043 61.8137 50.4181C72.0469 49.5111 80.0722 40.9212 80.0722 30.4523C80.0722 23.7654 76.7958 17.8471 71.7637 14.2043C81.0148 18.0841 86.9229 26.8057 86.9229 37.8244Z" fill="url(#paint12_linear_268_130)"/>
<path d="M72.4208 15.1938C72.324 15.0719 72.2251 14.9522 72.1257 14.8329C71.9894 14.773 71.8544 14.7106 71.7168 14.6528C71.9571 14.8261 72.189 15.0095 72.4208 15.1938Z" fill="url(#paint13_linear_268_130)"/>
<path d="M77.9338 18.3882C81.5388 22.7719 83.6075 28.4864 83.6075 35.0059C83.6075 47.6017 75.9415 57.1191 64.3427 59.899C62.0727 60.443 59.655 60.7338 57.1115 60.7338H40.239C39.8985 61.7746 39.6755 62.8684 39.5859 64H42.8686H60.3777C62.9211 64 65.3389 63.7091 67.6089 63.1652C79.2077 60.3852 86.8737 50.8675 86.8737 38.2721C86.8741 29.9823 83.5294 22.9936 77.9338 18.3882Z" fill="url(#paint14_linear_268_130)"/>
<path d="M39.5294 12.0949L53.1922 12.0829L53.1758 27.18C53.0936 33.6994 46.971 38.9364 39.5001 38.8775L39.5294 12.0949Z" fill="url(#paint15_linear_268_130)"/>
<path d="M39.686 38.4548C45.1332 38.5016 49.9597 35.0704 52.7761 29.8514C50.0401 32.6764 46.5129 34.3704 42.6775 34.3375L42.7637 10.3026L39.7853 10.7569L39.686 38.4548Z" fill="url(#paint16_linear_268_130)"/>
<defs>
<linearGradient id="paint0_linear_268_130" x1="15.7378" y1="44.4949" x2="26.0937" y2="51.1907" gradientUnits="userSpaceOnUse">
<stop stop-color="#3D0056"/>
<stop offset="0.9997" stop-color="#E33FC5"/>
</linearGradient>
<linearGradient id="paint1_linear_268_130" x1="28.6797" y1="55.5607" x2="14.4099" y2="40.2469" gradientUnits="userSpaceOnUse">
<stop stop-color="#3D0056"/>
<stop offset="0.5055" stop-color="#E33FC5" stop-opacity="0"/>
</linearGradient>
<linearGradient id="paint2_linear_268_130" x1="23.5603" y1="36.8521" x2="11.9247" y2="15.5419" gradientUnits="userSpaceOnUse">
<stop offset="0.000294" stop-color="#2A0056"/>
<stop offset="1" stop-color="#8A0BFF"/>
</linearGradient>
<linearGradient id="paint3_linear_268_130" x1="19.5683" y1="47.6865" x2="50.6084" y2="47.6865" gradientUnits="userSpaceOnUse">
<stop stop-color="#DF38FF"/>
<stop offset="1" stop-color="#FF39FF"/>
</linearGradient>
<linearGradient id="paint4_linear_268_130" x1="19.5683" y1="47.6865" x2="50.6084" y2="47.6865" gradientUnits="userSpaceOnUse">
<stop stop-color="#DF38FF"/>
<stop offset="1" stop-color="#FF39FF"/>
</linearGradient>
<linearGradient id="paint5_linear_268_130" x1="25.5822" y1="47.6865" x2="50.6083" y2="47.6865" gradientUnits="userSpaceOnUse">
<stop stop-color="#8A0BFF"/>
<stop offset="0.9994" stop-color="#2A0056" stop-opacity="0"/>
</linearGradient>
<linearGradient id="paint6_linear_268_130" x1="31.3378" y1="47.9531" x2="50.2783" y2="47.9531" gradientUnits="userSpaceOnUse">
<stop stop-color="#8A0BFF"/>
<stop offset="0.9994" stop-color="#2A0056" stop-opacity="0"/>
</linearGradient>
<linearGradient id="paint7_linear_268_130" x1="17.4514" y1="42.3082" x2="11.9604" y2="14.984" gradientUnits="userSpaceOnUse">
<stop stop-color="#A553FF"/>
<stop offset="0.9994" stop-color="#AE38FF"/>
</linearGradient>
<linearGradient id="paint8_linear_268_130" x1="20.5497" y1="38.6053" x2="13.3072" y2="2.56495" gradientUnits="userSpaceOnUse">
<stop stop-color="#A553FF"/>
<stop offset="0.9994" stop-color="#AE38FF"/>
</linearGradient>
<linearGradient id="paint9_linear_268_130" x1="15.4148" y1="44.7445" x2="11.0764" y2="23.156" gradientUnits="userSpaceOnUse">
<stop stop-color="#8A0BFF"/>
<stop offset="0.9994" stop-color="#2A0056" stop-opacity="0"/>
</linearGradient>
<linearGradient id="paint10_linear_268_130" x1="11.7827" y1="50.1056" x2="10.0781" y2="41.6231" gradientUnits="userSpaceOnUse">
<stop stop-color="#8A0BFF"/>
<stop offset="0.9994" stop-color="#2A0056" stop-opacity="0"/>
</linearGradient>
<linearGradient id="paint11_linear_268_130" x1="70.9728" y1="37.0811" x2="46.5601" y2="20.9256" gradientUnits="userSpaceOnUse">
<stop offset="0.097" stop-color="#642EC0"/>
<stop offset="0.6695" stop-color="#9441F5"/>
</linearGradient>
<linearGradient id="paint12_linear_268_130" x1="36.4317" y1="76.8952" x2="100.434" y2="8.9603" gradientUnits="userSpaceOnUse">
<stop offset="0.1671" stop-color="#911EAD"/>
<stop offset="0.9926" stop-color="#D62AFC"/>
</linearGradient>
<linearGradient id="paint13_linear_268_130" x1="72.018" y1="14.977" x2="72.1785" y2="14.8067" gradientUnits="userSpaceOnUse">
<stop offset="0.1671" stop-color="#911EAD"/>
<stop offset="0.9926" stop-color="#D62AFC"/>
</linearGradient>
<linearGradient id="paint14_linear_268_130" x1="60.5271" y1="59.636" x2="77.3811" y2="19.0036" gradientUnits="userSpaceOnUse">
<stop offset="0.673077" stop-opacity="0.1"/>
<stop offset="1" stop-color="white" stop-opacity="0"/>
</linearGradient>
<linearGradient id="paint15_linear_268_130" x1="47.9061" y1="49.8387" x2="45.3237" y2="10.4807" gradientUnits="userSpaceOnUse">
<stop stop-color="#BC04F0"/>
<stop offset="0.1154" stop-color="#B406E6"/>
<stop offset="0.31" stop-color="#9D0ACC"/>
<stop offset="0.5597" stop-color="#7912A1"/>
<stop offset="0.852" stop-color="#471C66"/>
<stop offset="1" stop-color="#2B2246"/>
</linearGradient>
<linearGradient id="paint16_linear_268_130" x1="47.9984" y1="16.7309" x2="29.4987" y2="58.2449" gradientUnits="userSpaceOnUse">
<stop offset="0.0223" stop-color="white" stop-opacity="0"/>
<stop offset="1" stop-color="white"/>
</linearGradient>
</defs>
</svg>
